<?xml version="1.0" encoding="utf-8"?>
<!-- Generator: Adobe Illustrator 23.0.2, SVG Export Plug-In . SVG Version: 6.00 Build 0)  -->
<svg version="1.1" id="Layer_1" xmlns="http://www.w3.org/2000/svg" xmlns:xlink="http://www.w3.org/1999/xlink" x="0px" y="0px"
	 viewBox="0 0 349 449" style="enable-background:new 0 0 349 449;" xml:space="preserve">
<style type="text/css">
	.st0{fill:#F5753F;}
	.st1{fill:#86A7CB;}
	.st2{fill:none;}
</style>
<path class="st0" d="M346.9,444.6h-2.9v-11.9h2.9V444.6z M346.9,426.7h-2.9v-11.9h2.9V426.7z M346.9,408.9h-2.9V397h2.9V408.9z
	 M346.9,391h-2.9v-11.9h2.9V391z M346.9,373.2h-2.9v-11.9h2.9V373.2z M346.9,355.3h-2.9v-11.9h2.9V355.3z M346.9,337.5h-2.9v-11.9
	h2.9V337.5z M346.9,319.6h-2.9v-11.9h2.9V319.6z M346.9,301.8h-2.9v-11.9h2.9V301.8z M346.9,284h-2.9v-11.9h2.9V284z M346.9,266.1
	h-2.9v-11.9h2.9V266.1z M346.9,248.3h-2.9v-11.9h2.9V248.3z M346.9,230.4h-2.9v-11.9h2.9V230.4z M346.9,212.6h-2.9v-11.9h2.9V212.6z
	 M346.9,194.7h-2.9v-11.9h2.9V194.7z M346.9,176.9h-2.9V165h2.9V176.9z M346.9,159.1h-2.9v-11.9h2.9V159.1z M346.9,141.2h-2.9v-11.9
	h2.9V141.2z M346.9,123.4h-2.9v-11.9h2.9V123.4z M346.9,105.5h-2.9V93.7h2.9V105.5z M346.9,87.7h-2.9V75.8h2.9V87.7z M346.9,69.8
	h-2.9V58h2.9V69.8z M346.9,52h-2.9V40.1h2.9V52z M346.9,34.1h-2.9V22.3h2.9V34.1z M346.9,16.3h-2.9V4.4h2.9V16.3z"/>
<path class="st0" d="M2.9,444.6H0v-11.9h2.9V444.6z M2.9,426.7H0v-11.9h2.9V426.7z M2.9,408.9H0V397h2.9V408.9z M2.9,391H0v-11.9
	h2.9V391z M2.9,373.2H0v-11.9h2.9V373.2z M2.9,355.3H0v-11.9h2.9V355.3z M2.9,337.5H0v-11.9h2.9V337.5z M2.9,319.6H0v-11.9h2.9
	V319.6z M2.9,301.8H0v-11.9h2.9V301.8z M2.9,284H0v-11.9h2.9V284z M2.9,266.1H0v-11.9h2.9V266.1z M2.9,248.3H0v-11.9h2.9V248.3z
	 M2.9,230.4H0v-11.9h2.9V230.4z M2.9,212.6H0v-11.9h2.9V212.6z M2.9,194.7H0v-11.9h2.9V194.7z M2.9,176.9H0V165h2.9V176.9z
	 M2.9,159.1H0v-11.9h2.9V159.1z M2.9,141.2H0v-11.9h2.9V141.2z M2.9,123.4H0v-11.9h2.9V123.4z M2.9,105.5H0V93.7h2.9V105.5z
	 M2.9,87.7H0V75.8h2.9V87.7z M2.9,69.8H0V58h2.9V69.8z M2.9,52H0V40.1h2.9V52z M2.9,34.1H0V22.3h2.9V34.1z M2.9,16.3H0V4.4h2.9V16.3
	z"/>
<path class="st1" d="M18.9,444.6h-2.9v-11.9h2.9V444.6z M18.9,420.8h-2.9v-11.9h2.9V420.8z M18.9,397h-2.9v-11.9h2.9V397z
	 M18.9,373.2h-2.9v-11.9h2.9V373.2z M18.9,349.4h-2.9v-11.9h2.9V349.4z M18.9,325.6h-2.9v-11.9h2.9V325.6z M18.9,301.8h-2.9v-11.9
	h2.9V301.8z M18.9,278h-2.9v-11.9h2.9V278z M18.9,254.2h-2.9v-11.9h2.9V254.2z M18.9,230.4h-2.9v-11.9h2.9V230.4z M18.9,206.7h-2.9
	v-11.9h2.9V206.7z M18.9,182.9h-2.9V171h2.9V182.9z M18.9,159.1h-2.9v-11.9h2.9V159.1z M18.9,135.3h-2.9v-11.9h2.9V135.3z
	 M18.9,111.5h-2.9V99.6h2.9V111.5z M18.9,87.7h-2.9V75.8h2.9V87.7z M18.9,63.9h-2.9V52h2.9V63.9z M18.9,40.1h-2.9V28.2h2.9V40.1z
	 M18.9,16.3h-2.9V4.4h2.9V16.3z"/>
<path class="st1" d="M336.6,444.6h-2.9v-11.9h2.9V444.6z M336.6,420.8h-2.9v-11.9h2.9V420.8z M336.6,397h-2.9v-11.9h2.9V397z
	 M336.6,373.2h-2.9v-11.9h2.9V373.2z M336.6,349.4h-2.9v-11.9h2.9V349.4z M336.6,325.6h-2.9v-11.9h2.9V325.6z M336.6,301.8h-2.9
	v-11.9h2.9V301.8z M336.6,278h-2.9v-11.9h2.9V278z M336.6,254.2h-2.9v-11.9h2.9V254.2z M336.6,230.4h-2.9v-11.9h2.9V230.4z
	 M336.6,206.7h-2.9v-11.9h2.9V206.7z M336.6,182.9h-2.9V171h2.9V182.9z M336.6,159.1h-2.9v-11.9h2.9V159.1z M336.6,135.3h-2.9v-11.9
	h2.9V135.3z M336.6,111.5h-2.9V99.6h2.9V111.5z M336.6,87.7h-2.9V75.8h2.9V87.7z M336.6,63.9h-2.9V52h2.9V63.9z M336.6,40.1h-2.9
	V28.2h2.9V40.1z M336.6,16.3h-2.9V4.4h2.9V16.3z"/>
<rect x="0" y="4.4" class="st2" width="346.9" height="440.1"/>
<path class="st0" d="M265,298.6h-11.5v-2.9H265V298.6z M247.8,298.6h-11.5v-2.9h11.5V298.6z M230.6,298.6h-11.5v-2.9h11.5V298.6z
	 M213.4,298.6h-11.5v-2.9h11.5V298.6z M196.3,298.6h-11.5v-2.9h11.5V298.6z M179.1,298.6h-11.5v-2.9h11.5V298.6z M161.9,298.6h-11.5
	v-2.9h11.5V298.6z M144.7,298.6h-11.5v-2.9h11.5V298.6z M127.5,298.6H116v-2.9h11.5V298.6z M110.3,298.6H98.8v-2.9h11.5V298.6z
	 M93.1,298.6H81.6v-2.9h11.5V298.6z"/>
<path class="st1" d="M246.4,107.4H235v-2.9h11.3V107.4z M223.7,107.4h-11.3v-2.9h11.3V107.4z M201.1,107.4h-11.3v-2.9h11.3V107.4z
	 M178.5,107.4h-11.3v-2.9h11.3V107.4z M155.8,107.4h-11.3v-2.9h11.3V107.4z M133.2,107.4h-11.3v-2.9h11.3V107.4z M110.6,107.4H99.3
	v-2.9h11.3V107.4z"/>
</svg>
